<svg xmlns="http://www.w3.org/2000/svg" viewBox="0 0 100 100" width="100" height="100">
  <!-- Fondo circular -->
  <circle cx="50" cy="50" r="48" fill="#FFF7ED"/>
  
  <!-- Casa -->
  <path d="M50 20 L75 42 L70 42 L70 72 L30 72 L30 42 L25 42 Z" fill="#F97316"/>
  <rect x="38" y="55" width="24" height="17" rx="2" fill="#FFF7ED"/>
  <circle cx="44" cy="63" r="2" fill="#F97316"/>
  
  <!-- Tejado -->
  <path d="M50 20 L75 42 L25 42 Z" fill="#EA580C"/>
  
  <!-- Estrella de recompensa -->
  <path d="M68 30 L70.5 37.5 L78 38 L72 43 L74 50.5 L68 46.5 L62 50.5 L64 43 L58 38 L65.5 37.5 Z" fill="#FBBF24" stroke="#F59E0B" stroke-width="1.5"/>
  
  <!-- Niños pequeños -->
  <circle cx="35" cy="78" r="5" fill="#FDBA74"/>
  <circle cx="50" cy="78" r="5" fill="#FDBA74"/>
  <circle cx="65" cy="78" r="5" fill="#FDBA74"/>
  <path d="M28 88 Q35 82 42 88" stroke="#F97316" stroke-width="3" fill="none" stroke-linecap="round"/>
  <path d="M43 88 Q50 82 57 88" stroke="#F97316" stroke-width="3" fill="none" stroke-linecap="round"/>
  <path d="M58 88 Q65 82 72 88" stroke="#F97316" stroke-width="3" fill="none" stroke-linecap="round"/>
</svg>
